# xmcd
#
# Track frame offsets:
#	150
#	33793
#	48192
#	76097
#	101232
#
# Disc length: 1841 seconds
#
# Revision: 1
# Processed by: cddbd v1.5.1PL0 Copyright (c) Steve Scherf et al.
# Submitted via: audiograbber 1.83.01
#
DISCID=2e072f05
DTITLE=Blind Joe and The Drunken Rats - Blues Without No Mercy
DYEAR=2001
DGENRE=Blues
TTITLE0=Rain
TTITLE1=Beer Bottle Boogie
TTITLE2=I Want To Be The Man For You
TTITLE3=Working No More
TTITLE4=Cold Feeling
EXTD=
EXTT0=
EXTT1=
EXTT2=
EXTT3=
EXTT4=
PLAYORDER=
